<?xml version="1.0" standalone="no"?>
<!DOCTYPE svg PUBLIC "-//W3C//DTD SVG 20010904//EN"
 "http://www.w3.org/TR/2001/REC-SVG-20010904/DTD/svg10.dtd">
<svg version="1.0" xmlns="http://www.w3.org/2000/svg"
 width="512.000000pt" height="512.000000pt" viewBox="0 0 512.000000 512.000000"
 preserveAspectRatio="xMidYMid meet">
<metadata>
Created by potrace 1.11, written by Peter Selinger 2001-2013
</metadata>
<g transform="translate(0.000000,512.000000) scale(0.100000,-0.100000)"
fill="#000000" stroke="none">
<path d="M34 4766 l-34 -34 0 -1731 c0 -1871 -3 -1782 52 -1813 18 -10 198
-13 918 -14 492 -1 898 -3 901 -3 4 -1 -2 -43 -13 -93 -11 -51 -21 -104 -24
-118 -2 -14 -7 -36 -10 -50 -3 -14 -7 -36 -9 -50 -2 -14 -18 -91 -34 -171 -17
-81 -31 -149 -31 -151 0 -3 -16 -5 -35 -6 -109 -4 -152 -130 -66 -192 28 -19
45 -20 904 -20 551 0 885 3 901 10 14 5 35 24 46 42 42 68 -6 156 -88 160 -23
1 -42 4 -43 7 0 3 -2 13 -4 21 -2 8 -6 31 -9 50 -4 19 -16 80 -27 135 -12 55
-23 109 -25 120 -4 21 -11 56 -42 212 -13 63 -15 93 -8 94 6 0 411 2 901 2
842 2 891 3 917 20 14 10 31 32 37 49 8 22 11 553 11 1759 l0 1729 -29 32 -29
33 -2497 3 -2497 2 -34 -34z"/>
</g>
</svg>
